<svg xmlns="http://www.w3.org/2000/svg" version="1.1" xmlns:xlink="http://www.w3.org/1999/xlink" xmlns:svgjs="http://svgjs.dev/svgjs" viewBox="0 0 1422 800"><circle r="25.5" cx="1384" cy="120" fill="hsl(139, 50%, 50%)" opacity="0.79"></circle><circle r="19" cx="213" cy="702" fill="hsl(120, 50%, 50%)" opacity="0.63"></circle><circle r="24.5" cx="1303" cy="324" stroke-width="2" stroke="hsl(135, 50%, 50%)" fill="none" opacity="0.10"></circle><circle r="19.5" cx="1133" cy="768" stroke-width="2" stroke="hsl(121, 50%, 50%)" fill="none" opacity="0.23"></circle><circle r="13.5" cx="755" cy="766" stroke-width="2" stroke="hsl(48, 50%, 50%)" fill="none" opacity="0.49"></circle><circle r="17" cx="387" cy="158" fill="hsl(83, 50%, 50%)" opacity="0.27"></circle><circle r="21" cx="1109" cy="703" fill="hsl(119, 50%, 50%)" opacity="0.59"></circle><circle r="11" cx="540" cy="754" stroke-width="2" stroke="hsl(47, 50%, 50%)" fill="none" opacity="0.11"></circle><circle r="22.5" cx="1388" cy="203" stroke-width="2" stroke="hsl(136, 50%, 50%)" fill="none" opacity="0.82"></circle><circle r="15" cx="544" cy="136" fill="hsl(50, 50%, 50%)" opacity="0.14"></circle><circle r="19" cx="283" cy="318" stroke-width="2" stroke="hsl(108, 50%, 50%)" fill="none" opacity="0.56"></circle><circle r="24.5" cx="1078" cy="352" fill="hsl(116, 50%, 50%)" opacity="0.29"></circle><circle r="27" cx="1379" cy="603" fill="hsl(136, 50%, 50%)" opacity="0.21"></circle><circle r="26.5" cx="1193" cy="549" stroke-width="2" stroke="hsl(127, 50%, 50%)" fill="none" opacity="0.91"></circle><circle r="24.5" cx="1147" cy="616" fill="hsl(123, 50%, 50%)" opacity="0.97"></circle><circle r="25.5" cx="39" cy="376" fill="hsl(135, 50%, 50%)" opacity="0.55"></circle><circle r="20.5" cx="1063" cy="652" stroke-width="2" stroke="hsl(113, 50%, 50%)" fill="none" opacity="0.32"></circle><circle r="20.5" cx="283" cy="629" stroke-width="2" stroke="hsl(108, 50%, 50%)" fill="none" opacity="0.48"></circle><circle r="25.5" cx="1258" cy="387" fill="hsl(132, 50%, 50%)" opacity="0.67"></circle><circle r="15" cx="792" cy="315" stroke-width="2" stroke="hsl(56, 50%, 50%)" fill="none" opacity="0.18"></circle><circle r="21" cx="1222" cy="767" fill="hsl(129, 50%, 50%)" opacity="0.45"></circle><circle r="24.5" cx="1337" cy="670" stroke-width="2" stroke="hsl(136, 50%, 50%)" fill="none" opacity="0.77"></circle><circle r="20.5" cx="101" cy="125" fill="hsl(120, 50%, 50%)" opacity="0.18"></circle><circle r="25" cx="116" cy="378" stroke-width="2" stroke="hsl(130, 50%, 50%)" fill="none" opacity="0.99"></circle><circle r="19.5" cx="233" cy="102" stroke-width="2" stroke="hsl(104, 50%, 50%)" fill="none" opacity="0.48"></circle><circle r="20" cx="1392" cy="738" fill="hsl(136, 50%, 50%)" opacity="0.75"></circle><circle r="24" cx="178" cy="235" stroke-width="2" stroke="hsl(123, 50%, 50%)" fill="none" opacity="0.52"></circle><circle r="20" cx="924" cy="524" fill="hsl(89, 50%, 50%)" opacity="0.14"></circle><circle r="18.5" cx="863" cy="648" stroke-width="2" stroke="hsl(72, 50%, 50%)" fill="none" opacity="0.77"></circle><circle r="25" cx="1309" cy="169" stroke-width="2" stroke="hsl(137, 50%, 50%)" fill="none" opacity="0.66"></circle><circle r="22" cx="100" cy="751" fill="hsl(132, 50%, 50%)" opacity="0.23"></circle><circle r="16" cx="546" cy="557" stroke-width="2" stroke="hsl(47, 50%, 50%)" fill="none" opacity="0.26"></circle><circle r="28" cx="1291" cy="544" stroke-width="2" stroke="hsl(135, 50%, 50%)" fill="none" opacity="0.38"></circle><circle r="16.5" cx="854" cy="764" stroke-width="2" stroke="hsl(72, 50%, 50%)" fill="none" opacity="0.76"></circle><circle r="25.5" cx="1035" cy="752" stroke-width="2" stroke="hsl(110, 50%, 50%)" fill="none" opacity="0.20"></circle><circle r="21" cx="900" cy="313" fill="hsl(83, 50%, 50%)" opacity="0.73"></circle><circle r="25.5" cx="126" cy="461" stroke-width="2" stroke="hsl(130, 50%, 50%)" fill="none" opacity="0.20"></circle></svg>